<?xml version="1.0"?>
<svg xmlns="http://www.w3.org/2000/svg" xmlns:xlink="http://www.w3.org/1999/xlink" xmlns:svgjs="http://svgjs.com/svgjs" version="1.1" width="512" height="512" x="0" y="0" viewBox="0 0 368 368" style="enable-background:new 0 0 512 512" xml:space="preserve" class=""><g transform="matrix(0.8999999999999999,0,0,0.9,3.4000000000000057,18.400000000000006)">
<g xmlns="http://www.w3.org/2000/svg">
	<g>
		<path d="M344,0H24C10.768,0,0,10.768,0,24v320c0,13.232,10.768,24,24,24h320c13.232,0,24-10.768,24-24V24    C368,10.768,357.232,0,344,0z M80,16h48v48H80V16z M16,24c0-4.408,3.584-8,8-8h40v48H16V24z M352,344c0,4.408-3.584,8-8,8H24    c-4.416,0-8-3.592-8-8V80h336V344z M352,64H144V16h200c4.416,0,8,3.592,8,8V64z" fill="#ffffff" data-original="#000000" style="" class=""/>
	</g>
</g>
<g xmlns="http://www.w3.org/2000/svg">
	<g>
		<path d="M317.656,202.344L288,172.688V136c0-13.232-10.768-24-24-24h-32c-4.424,0-8,3.584-8,8s3.576,8,8,8h32c4.416,0,8,3.592,8,8    v40c0,2.12,0.84,4.16,2.344,5.656L300.688,208l-26.344,26.344C272.84,235.84,272,237.88,272,240v56c0,4.408-3.584,8-8,8h-32    c-4.424,0-8,3.584-8,8c0,4.416,3.576,8,8,8h32c13.232,0,24-10.768,24-24v-52.688l29.656-29.656    C320.784,210.528,320.784,205.472,317.656,202.344z" fill="#ffffff" data-original="#000000" style="" class=""/>
	</g>
</g>
<g xmlns="http://www.w3.org/2000/svg">
	<g>
		<path d="M136,304h-32c-4.416,0-8-3.592-8-8v-56c0-2.12-0.84-4.16-2.344-5.656L67.312,208l26.344-26.344    C95.16,180.16,96,178.12,96,176v-40c0-4.408,3.584-8,8-8h32c4.424,0,8-3.584,8-8s-3.576-8-8-8h-32c-13.232,0-24,10.768-24,24    v36.688l-29.656,29.656c-3.128,3.128-3.128,8.184,0,11.312L80,243.312V296c0,13.232,10.768,24,24,24h32c4.424,0,8-3.584,8-8    C144,307.584,140.424,304,136,304z" fill="#ffffff" data-original="#000000" style="" class=""/>
	</g>
</g>
<g xmlns="http://www.w3.org/2000/svg">
</g>
<g xmlns="http://www.w3.org/2000/svg">
</g>
<g xmlns="http://www.w3.org/2000/svg">
</g>
<g xmlns="http://www.w3.org/2000/svg">
</g>
<g xmlns="http://www.w3.org/2000/svg">
</g>
<g xmlns="http://www.w3.org/2000/svg">
</g>
<g xmlns="http://www.w3.org/2000/svg">
</g>
<g xmlns="http://www.w3.org/2000/svg">
</g>
<g xmlns="http://www.w3.org/2000/svg">
</g>
<g xmlns="http://www.w3.org/2000/svg">
</g>
<g xmlns="http://www.w3.org/2000/svg">
</g>
<g xmlns="http://www.w3.org/2000/svg">
</g>
<g xmlns="http://www.w3.org/2000/svg">
</g>
<g xmlns="http://www.w3.org/2000/svg">
</g>
<g xmlns="http://www.w3.org/2000/svg">
</g>
</g></svg>
