<?xml version="1.0"?>
<svg xmlns="http://www.w3.org/2000/svg" xmlns:xlink="http://www.w3.org/1999/xlink" xmlns:svgjs="http://svgjs.com/svgjs" version="1.1" width="512" height="512" x="0" y="0" viewBox="0 0 58 58" style="enable-background:new 0 0 512 512" xml:space="preserve" class=""><g>
<g xmlns="http://www.w3.org/2000/svg">
	<path d="M50.949,12.187l-1.361-1.361l-9.504-9.505c-0.001-0.001-0.001-0.001-0.002-0.001l-0.77-0.771   C38.957,0.195,38.486,0,37.985,0H8.963C7.776,0,6.5,0.916,6.5,2.926V39v16.537V56c0,0.837,0.841,1.652,1.836,1.909   c0.051,0.014,0.1,0.033,0.152,0.043C8.644,57.983,8.803,58,8.963,58h40.074c0.16,0,0.319-0.017,0.475-0.048   c0.052-0.01,0.101-0.029,0.152-0.043C50.659,57.652,51.5,56.837,51.5,56v-0.463V39V13.978C51.5,13.211,51.407,12.644,50.949,12.187   z M39.5,3.565L47.935,12H39.5V3.565z M8.963,56c-0.071,0-0.135-0.025-0.198-0.049C8.61,55.877,8.5,55.721,8.5,55.537V41h41v14.537   c0,0.184-0.11,0.34-0.265,0.414C49.172,55.975,49.108,56,49.037,56H8.963z M8.5,39V2.926C8.5,2.709,8.533,2,8.963,2h28.595   C37.525,2.126,37.5,2.256,37.5,2.391V14h11.608c0.135,0,0.265-0.025,0.391-0.058c0,0.015,0.001,0.021,0.001,0.036V39H8.5z" fill="#ffffff" data-original="#000000" style=""/>
	<polygon points="21.227,43.924 19.299,48.025 19.162,48.025 17.385,43.924 15.512,43.924 18.232,49.105 15.676,54 17.576,54    19.299,50.199 19.436,50.199 21.035,54 22.936,54 20.379,49.105 23.1,43.924  " fill="#ffffff" data-original="#000000" style=""/>
	<polygon points="30.018,50.814 27.023,43.924 25.355,43.924 25.355,54 27.023,54 27.023,47.068 29.293,52.674 30.742,52.674    32.998,47.068 32.998,54 34.666,54 34.666,43.924 32.998,43.924  " fill="#ffffff" data-original="#000000" style=""/>
	<polygon points="38.863,43.924 37.195,43.924 37.195,54 43.498,54 43.498,52.756 38.863,52.756  " fill="#ffffff" data-original="#000000" style=""/>
	<path d="M23.207,17.293c-0.391-0.391-1.023-0.391-1.414,0l-6,6c-0.391,0.391-0.391,1.023,0,1.414l6,6   C21.988,30.902,22.244,31,22.5,31s0.512-0.098,0.707-0.293c0.391-0.391,0.391-1.023,0-1.414L17.914,24l5.293-5.293   C23.598,18.316,23.598,17.684,23.207,17.293z" fill="#ffffff" data-original="#000000" style=""/>
	<path d="M35.207,17.293c-0.391-0.391-1.023-0.391-1.414,0s-0.391,1.023,0,1.414L39.086,24l-5.293,5.293   c-0.391,0.391-0.391,1.023,0,1.414C33.988,30.902,34.244,31,34.5,31s0.512-0.098,0.707-0.293l6-6c0.391-0.391,0.391-1.023,0-1.414   L35.207,17.293z" fill="#ffffff" data-original="#000000" style=""/>
	<path d="M31.833,14.057c-0.523-0.185-1.092,0.089-1.276,0.61l-6,17c-0.184,0.521,0.09,1.092,0.61,1.276   C25.277,32.982,25.39,33,25.5,33c0.412,0,0.798-0.257,0.943-0.667l6-17C32.627,14.812,32.354,14.241,31.833,14.057z" fill="#ffffff" data-original="#000000" style=""/>
</g>
<g xmlns="http://www.w3.org/2000/svg">
</g>
<g xmlns="http://www.w3.org/2000/svg">
</g>
<g xmlns="http://www.w3.org/2000/svg">
</g>
<g xmlns="http://www.w3.org/2000/svg">
</g>
<g xmlns="http://www.w3.org/2000/svg">
</g>
<g xmlns="http://www.w3.org/2000/svg">
</g>
<g xmlns="http://www.w3.org/2000/svg">
</g>
<g xmlns="http://www.w3.org/2000/svg">
</g>
<g xmlns="http://www.w3.org/2000/svg">
</g>
<g xmlns="http://www.w3.org/2000/svg">
</g>
<g xmlns="http://www.w3.org/2000/svg">
</g>
<g xmlns="http://www.w3.org/2000/svg">
</g>
<g xmlns="http://www.w3.org/2000/svg">
</g>
<g xmlns="http://www.w3.org/2000/svg">
</g>
<g xmlns="http://www.w3.org/2000/svg">
</g>
</g></svg>
